<?xml version="1.0" encoding="UTF-8"?>
<svg width="24px" height="24px" viewBox="0 0 24 24" version="1.1" xmlns="http://www.w3.org/2000/svg"
     xmlns:xlink="http://www.w3.org/1999/xlink">
    <defs>
        <path d="M12.707,2.293 C13.098,2.684 13.098,3.316 12.707,3.707 L5.41375,10.99975 L21,11 C21.5125714,11 21.9354694,11.3862857 21.9932682,11.8834315 L22,12 C22,12.552 21.552,13 21,13 L21,13 L5.41375,12.99975 L12.707,20.293 C13.098,20.684 13.098,21.316 12.707,21.707 C12.512,21.902 12.256,22 12,22 C11.744,22 11.488,21.902 11.293,21.707 L2.293,12.707 C1.902,12.316 1.902,11.684 2.293,11.293 L11.293,2.293 C11.684,1.902 12.316,1.902 12.707,2.293 Z"
              id="path-1"/>
    </defs>
    <g stroke="none" stroke-width="1" fill="none" fill-rule="evenodd">
        <mask id="mask-2" fill="white">
            <use xlink:href="#path-1"/>
        </mask>
        <rect fill="#111111" mask="url(#mask-2)" x="0" y="0" width="24" height="24"/>
    </g>
</svg>