<?xml version="1.0" encoding="UTF-8"?>
<svg width="24px" height="24px" viewBox="0 0 24 24" version="1.1" xmlns="http://www.w3.org/2000/svg"
     xmlns:xlink="http://www.w3.org/1999/xlink">
    <defs>
        <path d="M14,8 C14,6.895 14.895,6 16,6 C17.105,6 18,6.895 18,8 C18,9.105 17.105,10 16,10 C14.895,10 14,9.105 14,8 Z M22,4 L22,18 L22,20 C22,21.105 21.105,22 20,22 L4,22 C2.895,22 2,21.105 2,20 L2,14 L2,4 C2,2.895 2.895,2 4,2 L20,2 C21.105,2 22,2.895 22,4 Z M20,4 L4,4 L4,11.586 L7.293,8.293 C7.498,8.088 7.784,7.987 8.071,8.002 C8.36,8.023 8.626,8.168 8.8,8.4 L14,15.333 L16.2,12.4 C16.386,12.153 16.675,12.005 16.984,12 C17.281,12.004 17.588,12.134 17.781,12.375 L20,15.149 L20,4 Z"
              id="path-1"/>
    </defs>
    <g stroke="none" stroke-width="1" fill="none" fill-rule="evenodd">
        <mask id="mask-2" fill="white">
            <use xlink:href="#path-1"/>
        </mask>
        <g fill-rule="nonzero"/>
        <rect fill="#111111" mask="url(#mask-2)" x="0" y="0" width="24" height="24"/>
    </g>
</svg>